solid OpenSCAD_Model
  facet normal 0.57735 -0.57735 0.57735
    outer loop
      vertex 0 -5 0
      vertex 5 0 0
      vertex 0 0 5
    endloop
  endfacet
  facet normal 0 0 -1
    outer loop
      vertex 0 5 0
      vertex 5 0 0
      vertex -5 0 0
    endloop
  endfacet
  facet normal 0 0 -1
    outer loop
      vertex -5 0 0
      vertex 5 0 0
      vertex 0 -5 0
    endloop
  endfacet
  facet normal -0.57735 -0.57735 0.57735
    outer loop
      vertex -5 0 0
      vertex 0 -5 0
      vertex 0 0 5
    endloop
  endfacet
  facet normal -0.57735 0.57735 0.57735
    outer loop
      vertex -5 0 0
      vertex 0 0 5
      vertex 0 5 0
    endloop
  endfacet
  facet normal 0.57735 0.57735 0.57735
    outer loop
      vertex 0 0 5
      vertex 5 0 0
      vertex 0 5 0
    endloop
  endfacet
endsolid OpenSCAD_Model
